<?xml version="1.0" standalone="no"?>
<!DOCTYPE svg PUBLIC "-//W3C//DTD SVG 20010904//EN"
 "http://www.w3.org/TR/2001/REC-SVG-20010904/DTD/svg10.dtd">
<svg version="1.0" xmlns="http://www.w3.org/2000/svg"
 width="2000.000000pt" height="2000.000000pt" viewBox="0 0 2000.000000 2000.000000"
 preserveAspectRatio="xMidYMid meet">

<g transform="translate(0.000000,2000.000000) scale(0.100000,-0.100000)"
fill="#000000" stroke="none">
<path d="M9156 18421 c-16 -11 -33 -27 -38 -35 -6 -11 -24 -16 -54 -16 -25 0
-54 -5 -66 -11 -15 -8 -31 -6 -68 10 -63 27 -124 27 -180 -1 -40 -20 -54 -36
-95 -102 -9 -14 -15 -12 -57 14 -86 54 -192 35 -237 -42 -35 -59 -47 -66 -95
-57 -91 17 -154 -20 -177 -104 -14 -52 -5 -251 16 -331 14 -54 58 -148 90
-191 9 -13 11 -25 5 -35 -7 -12 -12 -10 -29 12 -25 31 -72 52 -105 46 -20 -4
-32 3 -55 33 -45 55 -99 69 -178 44 -18 -6 -22 -2 -28 27 -17 75 -70 113 -150
106 -43 -3 -45 -2 -45 24 0 78 -81 147 -157 135 -55 -9 -63 -26 -9 -20 66 8
105 -11 128 -64 21 -48 16 -90 -19 -140 -38 -54 -35 -58 9 -15 69 66 133 75
183 25 30 -30 40 -78 26 -116 -6 -16 -11 -33 -11 -38 0 -17 22 -9 42 16 21 27
85 49 120 40 49 -13 94 -69 77 -96 -15 -24 -10 -75 10 -93 18 -16 19 -16 30
15 6 18 11 45 11 60 0 25 4 29 29 29 37 0 77 -32 92 -75 16 -43 39 -46 39 -6
0 17 4 33 10 36 5 3 42 -21 82 -55 40 -33 89 -66 110 -72 22 -6 35 -14 30 -17
-5 -3 -14 -20 -20 -38 -11 -33 0 -109 19 -128 18 -18 8 -22 -63 -27 -159 -10
-277 -109 -339 -284 -16 -43 -23 -93 -26 -186 -5 -111 -8 -128 -24 -133 -30
-10 -96 -83 -119 -131 -17 -37 -21 -63 -20 -128 1 -44 -1 -97 -5 -116 -9 -47
9 -111 42 -150 l25 -31 -18 -57 c-13 -39 -19 -93 -21 -167 -1 -60 -5 -139 -9
-175 -11 -112 9 -155 109 -237 15 -12 27 -31 27 -43 0 -11 -21 -66 -46 -121
-25 -56 -48 -118 -51 -138 -9 -69 37 -131 98 -131 19 0 20 -4 13 -42 -20 -113
1 -206 59 -266 39 -40 135 -72 216 -72 56 0 156 23 164 38 3 4 8 68 12 142 l7
135 -38 3 c-102 7 -182 55 -223 137 -23 43 -26 62 -26 150 0 116 13 162 62
216 49 54 105 73 195 67 40 -3 86 -11 101 -17 l28 -11 -6 -118 c-3 -64 -8
-131 -11 -149 -6 -40 3 -45 62 -34 41 8 56 17 92 58 52 59 102 155 102 197 0
18 -9 49 -19 69 l-19 37 28 15 c41 21 50 19 44 -12 -8 -42 12 -148 40 -208 84
-183 280 -278 485 -234 72 15 168 77 221 142 44 54 91 160 89 202 0 11 -7 -5
-15 -35 -31 -115 -112 -211 -223 -264 -62 -29 -73 -31 -176 -31 -104 0 -113 2
-171 32 -159 83 -250 254 -224 422 35 221 241 376 457 342 158 -25 277 -126
330 -280 12 -36 23 -56 23 -45 0 23 35 43 83 47 28 2 28 1 118 -263 49 -146
94 -277 99 -292 13 -42 -7 -54 -99 -62 -119 -11 -106 -30 16 -24 140 8 146 21
88 189 -19 56 -35 104 -35 107 0 3 15 -12 34 -35 48 -56 131 -109 199 -128 89
-26 215 -18 291 18 79 37 141 89 182 154 19 29 36 53 38 53 2 0 4 -26 4 -59 0
-70 22 -123 66 -155 37 -28 88 -46 127 -46 l28 0 -25 -37 c-35 -51 -30 -125
10 -160 39 -33 50 -28 15 6 -22 22 -29 39 -29 67 0 33 32 103 48 104 4 1 22
14 41 30 40 34 34 57 -9 35 -63 -33 -172 -6 -215 52 -11 17 -21 49 -23 83 l-4
56 57 0 c51 0 60 3 82 28 31 37 28 82 -8 109 -25 18 -28 18 -62 2 -19 -9 -48
-34 -63 -56 -20 -29 -30 -36 -35 -27 -5 7 -9 9 -9 4 0 -6 -5 -5 -11 1 -9 9 -5
24 15 59 21 38 27 61 27 116 1 68 1 70 44 109 25 23 54 65 71 102 38 84 40
204 4 286 -21 47 -22 56 -9 75 70 107 88 199 49 249 -11 14 -20 29 -20 34 0 5
-11 24 -24 41 -13 18 -26 50 -30 72 -7 46 -56 107 -102 126 -28 12 -32 19 -38
67 -8 64 -42 141 -83 188 -17 19 -38 49 -47 66 -21 42 -60 61 -165 83 l-86 17
-7 41 c-15 91 -80 177 -165 218 -72 35 -171 38 -252 6 l-55 -21 -48 45 c-71
66 -144 96 -248 101 -104 5 -116 8 -101 27 14 17 4 92 -15 111 -8 7 -14 16
-14 20 0 3 -9 15 -19 26 -19 21 -19 21 14 50 18 16 38 29 44 29 22 0 59 31 71
60 9 22 19 30 37 30 31 0 63 16 85 44 22 26 23 94 3 123 -14 20 -14 23 5 33
30 16 60 69 60 106 0 38 -35 90 -75 113 -16 9 -32 17 -34 19 -3 1 3 18 12 37
34 72 11 157 -52 190 -40 20 -109 19 -146 -3 -29 -18 -31 -18 -60 0 -41 25
-130 24 -169 -1z m143 -15 c15 -8 33 -22 40 -30 12 -14 17 -13 43 9 54 46 152
27 178 -35 15 -37 7 -95 -17 -122 -10 -11 -38 -31 -63 -43 l-45 -24 73 2 c73
2 74 2 108 -35 36 -40 41 -62 22 -103 -19 -41 -60 -57 -126 -49 -68 8 -66 2 8
-23 45 -15 58 -25 73 -55 13 -27 15 -42 8 -61 -14 -35 -64 -60 -103 -52 -26 6
-30 5 -25 -10 8 -20 -16 -70 -39 -79 -24 -9 -26 -4 -13 33 16 44 4 117 -26
162 l-24 37 21 18 c48 44 63 126 33 184 -23 44 -87 73 -147 68 -45 -5 -48 -4
-48 19 0 40 -26 89 -64 119 -20 16 -36 32 -36 37 0 4 15 16 33 27 38 23 97 26
136 6z m-18 -874 c23 -39 28 -127 9 -146 -13 -13 -40 -17 -40 -5 0 5 5 9 11 9
18 0 6 105 -14 125 -18 18 -23 30 -8 21 5 -4 7 3 4 14 -5 17 -8 18 -22 8 -14
-12 -14 -11 -3 4 18 23 37 14 63 -30z m-201 -28 c7 -13 16 -22 19 -20 6 4 8
-6 15 -96 4 -55 -5 -81 -19 -57 -4 6 -8 30 -10 54 -1 24 -14 68 -28 98 -22 48
-23 54 -7 50 10 -3 23 -15 30 -29z m-336 -140 c27 -41 35 -59 27 -67 -8 -8
-11 -7 -11 2 0 8 -8 10 -22 7 -13 -3 -17 -3 -10 0 10 5 9 11 -7 28 -28 30 -43
73 -28 80 7 2 12 5 13 5 1 1 18 -24 38 -55z m-209 -2 c4 -53 20 -85 62 -122
25 -22 43 -43 39 -47 -11 -11 -76 28 -98 57 -21 29 -34 91 -24 116 6 15 20 12
21 -4z m679 -847 c24 -37 70 -56 129 -54 29 1 71 -6 95 -15 49 -19 102 -10
143 23 23 18 24 18 60 -1 20 -10 59 -21 88 -25 46 -5 53 -9 75 -47 35 -60 94
-91 176 -91 40 1 76 7 95 17 l30 16 25 -40 c28 -45 77 -74 142 -84 48 -8 58
-17 58 -55 0 -42 49 -126 100 -172 l49 -44 -11 -41 c-9 -36 -13 -40 -28 -32
-10 6 -28 10 -39 10 -12 0 -33 14 -48 31 -37 43 -97 69 -158 69 -54 0 -112
-24 -129 -53 -16 -26 7 -37 84 -38 56 0 61 -2 40 -11 -140 -60 -220 -128 -261
-223 -22 -49 -27 -55 -54 -54 -46 1 -66 12 -87 50 l-19 34 7 -42 c4 -29 2 -43
-6 -43 -6 0 -30 -9 -52 -20 -23 -11 -43 -20 -44 -20 0 0 -9 21 -19 48 -39 103
-108 175 -215 226 -60 29 -73 31 -175 31 -103 0 -114 -2 -177 -32 -110 -52
-192 -148 -228 -269 -11 -38 -16 -42 -61 -53 -39 -10 -53 -10 -64 -1 -13 11
-10 19 24 55 65 70 89 197 56 289 -15 42 -12 56 10 56 20 0 73 48 90 81 33 62
5 167 -53 205 l-23 15 50 26 c82 40 126 99 175 235 17 45 19 47 69 56 29 5 55
10 58 11 4 0 14 -10 23 -24z m1207 -656 c34 -11 39 -16 49 -60 6 -26 18 -56
25 -66 11 -14 14 -69 15 -257 l0 -238 28 6 c15 4 46 21 70 37 53 38 80 34 58
-9 -30 -57 -107 -131 -170 -162 -253 -125 -538 21 -586 301 -10 60 -9 81 14
178 26 113 147 232 276 272 39 12 178 10 221 -2z m-554 -275 l30 -6 -9 -51
c-5 -27 -7 -58 -5 -69 3 -10 2 -18 -2 -18 -4 0 -18 30 -32 67 -13 37 -25 71
-27 75 -4 10 6 10 45 2z m991 -232 c2 -13 -2 -29 -8 -37 -16 -19 -74 -29 -95
-18 -15 9 -12 14 19 47 40 43 79 47 84 8z"/>
<path d="M9275 16113 c-78 -11 -138 -36 -181 -75 -46 -42 -58 -78 -26 -78 10
0 51 11 91 25 40 14 102 32 139 41 121 27 142 35 142 48 0 25 -98 49 -165 39z"/>
<path d="M10130 15678 c-41 -11 -103 -56 -95 -68 3 -4 26 -1 52 7 83 25 160
19 256 -22 25 -11 22 17 -6 43 -47 44 -133 61 -207 40z"/>
<path d="M10135 15495 c-37 -37 -37 -78 1 -112 33 -30 78 -30 109 2 50 49 15
135 -55 135 -19 0 -40 -9 -55 -25z"/>
<path d="M9227 15685 c-42 -14 -89 -53 -81 -66 2 -4 24 -1 47 8 61 22 161 20
225 -6 58 -23 70 -12 29 27 -50 47 -147 64 -220 37z"/>
<path d="M9284 15560 c-28 -11 -54 -48 -54 -78 0 -35 43 -72 83 -72 44 0 75
26 83 67 5 27 1 37 -24 63 -31 31 -51 35 -88 20z"/>
<path d="M10711 15394 c0 -11 3 -14 6 -6 3 7 2 16 -1 19 -3 4 -6 -2 -5 -13z"/>
<path d="M9523 14854 c9 -90 67 -150 167 -174 35 -8 58 -8 89 0 47 12 55 30
13 30 -95 0 -196 67 -236 158 -27 59 -40 54 -33 -14z"/>
<path d="M7745 13675 c-71 -12 -150 -28 -175 -35 -25 -6 -55 -11 -67 -11 -13
0 -23 -4 -23 -10 0 -5 -5 -7 -10 -4 -13 8 -481 -98 -505 -115 -5 -3 -20 -7
-32 -8 -30 -1 -102 -35 -137 -63 -29 -25 -154 -169 -216 -249 -19 -25 -37 -47
-40 -50 -15 -12 -89 -130 -117 -185 -32 -63 -59 -140 -67 -190 -3 -16 -9 -43
-12 -60 -4 -16 -8 -37 -9 -45 -1 -8 -5 -22 -8 -30 -4 -13 -59 -234 -72 -295
-2 -11 -20 -80 -39 -153 -32 -125 -33 -135 -20 -179 8 -25 14 -63 14 -85 l0
-38 141 0 c113 0 139 3 131 13 -16 19 54 115 112 155 63 42 134 45 171 7 14
-13 25 -31 25 -40 0 -30 -23 -110 -34 -118 -6 -5 90 -6 214 -3 124 3 1322 24
2662 48 1340 23 2434 46 2431 51 -2 4 -45 5 -95 1 -90 -7 -90 -7 -83 15 4 12
24 53 46 91 21 38 39 72 39 75 0 3 11 22 23 43 13 20 22 43 19 51 -3 8 0 11 6
7 9 -5 29 32 23 43 -2 2 1 7 6 10 5 3 23 35 42 71 18 36 42 73 53 82 27 24 24
26 -162 132 -85 49 -171 98 -190 110 -19 11 -41 20 -47 18 -7 -2 -13 2 -13 9
0 8 -4 8 -15 -1 -8 -7 -15 -17 -15 -23 0 -5 -11 -25 -26 -44 -14 -18 -22 -38
-18 -45 4 -6 3 -8 -3 -5 -12 7 -46 -26 -38 -36 3 -4 2 -5 -1 -3 -3 3 -29 -13
-56 -34 -58 -43 -157 -94 -205 -105 -18 -3 -33 -10 -33 -14 0 -5 -60 -9 -132
-10 -135 -2 -238 16 -238 40 0 7 10 9 23 6 86 -22 165 -27 236 -17 105 16 162
31 155 41 -3 5 3 6 12 2 11 -4 15 -3 11 4 -4 7 0 9 11 7 20 -6 137 66 169 105
12 14 22 23 23 18 0 -11 65 63 88 103 l21 34 -117 69 c-64 38 -121 69 -127 70
-5 1 -12 5 -15 8 -16 20 -111 69 -121 63 -7 -4 -9 -3 -6 3 4 5 -6 16 -21 24
-15 7 -48 26 -74 42 -30 18 -55 26 -67 22 -11 -3 -22 -1 -26 4 -3 7 0 8 9 5 9
-3 16 -1 16 4 0 6 -10 14 -22 18 -13 4 -35 16 -49 27 -16 11 -32 16 -41 12 -7
-5 -10 -5 -6 0 5 5 -1 14 -11 21 -20 14 -331 122 -436 152 -33 9 -62 20 -65
23 -3 4 -45 19 -95 34 -49 15 -106 33 -125 41 -20 9 -42 16 -50 18 -15 3 -48
15 -62 23 -4 2 -19 -16 -34 -39 -15 -24 -30 -45 -33 -48 -4 -3 -14 -17 -24
-32 -9 -15 -37 -52 -62 -82 -25 -31 -43 -56 -41 -56 2 0 -16 -21 -40 -46 -24
-25 -44 -49 -44 -53 0 -7 -157 -165 -220 -222 -19 -17 -65 -51 -102 -76 -37
-25 -65 -50 -61 -56 3 -5 1 -7 -4 -4 -6 4 -44 -7 -84 -24 -109 -46 -209 -50
-321 -15 -91 28 -237 99 -334 162 -157 103 -405 311 -495 416 -30 35 -56 65
-60 68 -19 18 -139 185 -187 262 l-58 93 -54 1 c-30 1 -113 -8 -185 -21z
m-264 -171 c30 -9 74 -30 99 -47 25 -16 50 -30 57 -30 7 0 9 -5 6 -10 -7 -11
126 -141 165 -161 32 -16 121 -36 161 -36 68 0 220 68 205 92 -4 7 -3 8 5 4 6
-4 18 -2 26 4 12 10 15 9 15 -3 0 -13 -13 -27 -80 -81 -9 -7 -22 -10 -29 -8
-9 3 -11 0 -6 -8 5 -8 4 -11 -1 -7 -5 3 -34 -1 -64 -9 -132 -35 -261 8 -375
125 -78 80 -152 134 -173 126 -7 -2 -11 -1 -8 4 3 4 -20 14 -51 20 -66 15
-149 7 -211 -20 -49 -21 -108 -68 -104 -81 1 -5 -2 -7 -7 -3 -6 3 -25 -17 -43
-44 -18 -28 -36 -51 -40 -51 -12 0 -9 25 4 38 7 7 9 12 5 12 -20 0 102 124
143 145 89 46 205 57 301 29z m3019 -211 c0 -7 -88 -67 -100 -69 -3 0 -31 -8
-63 -18 -69 -21 -173 -24 -245 -6 -90 21 -67 29 70 24 97 -3 129 -2 118 6 -12
9 -10 10 8 5 21 -6 133 30 172 55 18 12 40 13 40 3z m132 -366 c31 -14 59 -23
62 -20 2 3 21 -11 42 -31 20 -19 42 -33 48 -29 6 3 8 3 4 -2 -8 -8 41 -52 54
-48 4 2 4 -5 1 -14 -5 -12 -3 -14 8 -8 8 4 11 5 7 0 -4 -4 5 -23 19 -42 14
-18 22 -37 18 -41 -4 -4 -14 4 -24 17 -30 45 -93 103 -105 98 -7 -3 -13 1 -13
9 0 7 5 11 11 8 6 -3 2 2 -9 11 -30 24 -159 84 -208 95 -87 20 -201 4 -291
-42 -61 -31 -156 -116 -156 -140 0 -14 5 -18 15 -14 8 3 15 2 15 -3 0 -5 12
-12 27 -15 14 -4 46 -21 70 -37 24 -17 48 -27 55 -23 7 5 8 3 3 -6 -4 -7 -4
-15 1 -19 26 -18 64 -93 75 -146 10 -51 9 -68 -5 -117 -10 -36 -26 -64 -42
-77 -24 -19 -24 -26 -1 -22 5 1 6 -3 2 -8 -3 -6 -11 -8 -18 -5 -8 3 -27 -2
-43 -11 -38 -20 -115 -19 -162 2 -20 9 -40 15 -45 15 -4 -1 -6 1 -5 6 2 4 -8
19 -20 32 -58 61 -77 165 -52 275 7 28 13 55 14 61 1 7 7 18 13 25 6 8 15 23
21 35 10 19 8 20 -31 23 -99 5 -367 -91 -367 -132 0 -6 -3 -7 -6 -4 -19 18
-361 -293 -348 -315 4 -7 2 -8 -4 -4 -7 4 -38 -13 -73 -40 -33 -25 -85 -61
-115 -79 -29 -18 -50 -35 -46 -39 3 -4 -2 -4 -12 0 -15 6 -17 4 -11 -6 5 -9 4
-11 -3 -6 -6 4 -29 -2 -51 -14 -169 -86 -471 -70 -644 34 -32 19 -55 31 -52
26 3 -5 0 -12 -6 -16 -7 -4 -9 -3 -6 3 6 10 -25 55 -34 50 -2 -1 -26 20 -54
47 -27 27 -43 46 -35 42 12 -6 12 -5 -1 6 -8 7 -24 27 -34 45 -17 29 -51 53
-76 53 -29 0 -304 178 -324 209 -3 6 -11 9 -16 6 -5 -4 -9 -1 -9 5 0 16 -168
122 -182 114 -6 -4 -8 -3 -4 4 3 6 2 13 -4 17 -5 3 -10 11 -10 16 0 10 51 -14
82 -39 9 -7 25 -15 35 -17 10 -1 17 -8 15 -14 -1 -6 4 -11 10 -11 7 -1 28 -14
47 -30 19 -16 38 -27 43 -24 4 3 8 1 8 -5 0 -11 122 -101 138 -101 5 0 15 -7
23 -16 7 -9 53 -36 102 -61 84 -42 89 -43 82 -21 -17 54 -17 195 -1 249 22 75
82 158 137 192 85 52 230 49 315 -6 27 -17 54 -30 59 -28 6 1 7 0 3 -4 -3 -4
5 -28 18 -53 33 -61 33 -175 1 -237 -12 -22 -20 -44 -19 -48 1 -5 -2 -6 -8 -2
-5 3 -10 2 -10 -4 0 -6 -16 -25 -35 -42 -19 -18 -32 -36 -28 -42 3 -6 1 -7 -5
-3 -11 6 -85 -27 -78 -35 7 -7 -43 -10 -160 -12 -76 0 -108 -4 -103 -11 48
-60 84 -94 93 -89 6 3 8 2 3 -2 -10 -11 74 -71 149 -106 86 -39 185 -61 286
-61 86 0 182 16 206 35 6 5 12 7 12 3 0 -3 23 4 52 15 61 24 168 88 168 100 0
5 5 9 11 9 10 0 89 62 139 110 15 14 37 34 51 46 13 11 59 53 103 92 147 135
321 241 436 267 23 5 169 18 185 16 21 -2 102 75 97 92 -1 4 2 6 8 2 5 -3 10
-1 10 4 0 6 5 11 10 11 6 0 29 12 51 27 23 15 71 38 108 51 91 32 238 27 323
-11z m-3204 -102 c-3 -3 -9 2 -12 12 -6 14 -5 15 5 6 7 -7 10 -15 7 -18z
m-873 -89 c6 -1 34 -15 64 -30 29 -15 60 -25 68 -22 8 3 12 2 8 -3 -3 -5 14
-24 37 -43 23 -18 38 -26 33 -18 -27 46 126 -127 164 -185 52 -80 92 -161 83
-169 -3 -3 1 -6 8 -6 7 0 11 -3 8 -6 -3 -3 0 -29 8 -58 17 -64 23 -174 14
-241 -7 -49 -7 -48 -9 22 -1 71 -25 189 -54 270 -29 79 -70 154 -83 149 -7 -3
-10 2 -7 13 5 21 -140 174 -210 221 -52 34 -160 86 -198 94 -110 24 -123 29
-104 36 15 5 100 -6 170 -24z m5479 -188 c-5 -7 -1 -9 12 -6 26 7 62 -37 38
-46 -10 -4 -13 -2 -8 6 5 8 2 9 -10 5 -9 -4 -15 -3 -11 3 3 5 -3 9 -12 9 -10
1 -25 1 -33 2 -58 2 -136 -30 -184 -77 -16 -16 -25 -22 -21 -14 5 8 -9 1 -30
-17 -73 -58 -100 -85 -97 -95 1 -5 -2 -7 -7 -4 -13 8 -140 -118 -294 -292 -21
-24 -41 -42 -44 -39 -9 10 132 200 191 256 34 33 49 60 24 45 -7 -4 -8 -3 -4
5 4 6 11 9 16 6 12 -8 50 17 50 32 0 7 3 12 8 11 4 -2 7 2 7 7 0 6 -4 9 -8 7
-5 -1 -6 2 -2 8 3 6 11 8 16 5 10 -7 81 40 123 81 16 16 26 24 23 17 -4 -6 19
6 50 27 55 36 106 54 178 63 17 2 31 5 33 6 2 0 0 -4 -4 -11z m-4299 -398 c27
-13 78 -51 112 -85 34 -34 65 -60 68 -56 3 3 3 -2 0 -11 -4 -9 1 -30 10 -47
15 -30 15 -31 -5 -31 -12 0 -19 4 -16 9 9 14 -67 105 -125 151 -28 22 -73 46
-101 55 -53 16 -158 21 -158 8 0 -5 -15 -8 -34 -9 -19 0 -58 -13 -87 -27 -59
-31 -75 -29 -30 4 17 12 28 25 26 28 -2 4 4 7 13 8 9 1 35 8 57 17 59 24 204
16 270 -14z m2238 -197 c-7 -2 -19 -2 -25 0 -7 3 -2 5 12 5 14 0 19 -2 13 -5z"/>
<path d="M8234 12829 c-67 -29 -152 -123 -140 -154 3 -9 2 -13 -4 -10 -5 3
-14 -11 -19 -32 -14 -50 -14 -173 0 -173 5 0 7 -4 4 -10 -10 -15 25 -79 46
-85 11 -4 28 -1 37 7 15 12 16 11 3 -4 -13 -17 -8 -18 73 -18 100 0 147 15
224 72 35 26 52 45 48 54 -3 8 -2 12 4 9 11 -7 33 32 25 45 -4 6 -1 9 6 8 22
-5 41 90 28 145 -6 26 -15 47 -19 47 -4 0 -11 11 -14 24 -3 14 -15 28 -26 31
-11 3 -20 10 -20 14 0 5 -22 18 -49 30 -59 25 -149 25 -207 0z"/>
<path d="M10053 12699 c-6 -6 -9 -18 -6 -27 4 -9 2 -13 -4 -9 -22 14 -48 -84
-48 -178 0 -81 3 -94 27 -132 52 -80 129 -111 204 -83 60 23 108 96 108 165 0
57 -39 149 -60 141 -8 -3 -11 0 -8 8 6 17 -60 74 -114 97 -63 27 -86 31 -99
18z"/>
<path d="M13335 12010 c-176 -4 -405 -8 -509 -9 -104 0 -187 -4 -183 -7 3 -4
252 -3 552 1 300 4 544 9 542 11 -9 9 -102 10 -402 4z"/>
<path d="M12320 11990 l-245 -6 273 -2 c149 -1 272 1 272 6 0 8 9 8 -300 2z"/>
<path d="M6658 11883 c12 -2 32 -2 45 0 12 2 2 4 -23 4 -25 0 -35 -2 -22 -4z"/>
<path d="M4463 11844 c-3 -9 -3 -289 0 -623 4 -333 7 -770 7 -970 0 -200 3
-362 6 -359 3 3 6 120 6 259 1 233 1 243 9 124 30 -501 47 -715 79 -1055 24
-241 52 -491 85 -755 13 -104 26 -233 29 -285 4 -52 9 -131 11 -175 81 -1346
174 -2116 434 -3595 11 -63 32 -182 46 -265 147 -844 336 -1744 471 -2235 53
-193 138 -458 153 -473 4 -4 1391 1 3082 12 1691 12 3810 25 4709 31 899 5
1856 12 2127 15 l492 5 9 -33 c64 -232 84 -318 78 -324 -10 -10 49 -10 -5969
-23 -2782 -7 -5061 -9 -5064 -6 -3 3 -16 63 -29 133 -12 71 -45 248 -73 394
-45 235 -153 912 -195 1224 -97 705 -215 1814 -261 2430 -3 44 -8 96 -10 115
-10 75 -62 818 -90 1280 -30 514 -63 1221 -80 1705 -3 88 -8 212 -10 275 -3
63 -9 302 -15 530 -6 228 -12 465 -14 525 -2 61 -2 -56 0 -260 2 -203 9 -518
15 -700 6 -181 8 -341 5 -355 -9 -50 -81 -155 -156 -231 -79 -80 -152 -119
-223 -119 -48 0 -129 42 -166 86 -54 65 -86 146 -245 617 -183 538 -195 570
-258 668 -105 166 -253 255 -398 242 -125 -12 -241 -131 -240 -247 0 -17 14
-69 30 -116 45 -127 39 -199 -20 -233 -37 -22 -68 -21 -132 4 -135 53 -281
164 -538 408 -85 81 -173 163 -195 182 -22 19 -49 42 -60 52 -90 81 -277 183
-400 219 -110 31 -282 31 -369 0 -178 -66 -303 -219 -314 -386 -12 -197 126
-374 443 -563 206 -124 454 -235 675 -303 134 -42 176 -63 200 -103 27 -43 25
-93 -5 -153 -38 -77 -114 -130 -272 -189 -149 -56 -234 -120 -272 -205 -84
-186 79 -342 474 -453 245 -69 409 -93 715 -107 143 -6 232 -14 265 -25 124
-39 216 -145 215 -249 -1 -80 -85 -173 -183 -201 -67 -19 -116 -20 -312 -11
-133 7 -172 5 -230 -8 -237 -55 -371 -218 -345 -420 30 -234 212 -406 652
-615 302 -144 611 -226 938 -251 248 -18 611 14 795 71 37 11 68 19 70 17 2
-2 30 -337 38 -458 2 -34 0 -36 -78 -77 -196 -103 -340 -153 -492 -171 l-72
-8 -43 63 c-26 38 -48 61 -56 58 -7 -3 -11 -1 -8 3 10 17 -79 96 -96 86 -6 -4
-8 -3 -5 3 4 5 -6 16 -21 23 -15 7 -34 16 -42 21 -58 34 -97 51 -179 79 -77
26 -106 31 -155 27 -83 -5 -108 -13 -128 -38 -10 -12 -18 -17 -18 -13 0 5 -9
-4 -20 -21 -11 -17 -17 -38 -14 -49 4 -12 2 -16 -5 -12 -16 10 -6 -55 15 -102
33 -70 148 -196 171 -187 7 2 12 -1 10 -7 -3 -15 65 -53 141 -79 52 -17 80
-20 154 -16 62 3 93 9 99 18 5 8 9 11 9 7 0 -26 160 72 160 99 0 8 4 12 9 8 5
-3 12 -1 16 5 3 5 27 10 53 10 61 0 199 31 287 65 38 14 125 55 192 90 68 35
123 62 123 60 0 -2 -51 -43 -112 -91 -109 -84 -337 -270 -595 -483 l-121 -101
-89 -5 c-48 -3 -90 -10 -91 -15 -2 -6 -8 -8 -13 -4 -17 10 -219 -37 -245 -57
-6 -5 -13 -6 -16 -3 -9 8 -138 -47 -132 -57 3 -5 -3 -6 -12 -2 -13 5 -15 3 -9
-7 5 -8 4 -11 -3 -6 -17 10 -123 -55 -192 -117 -19 -18 -35 -30 -35 -27 0 3
-17 -10 -38 -29 -20 -19 -35 -36 -32 -39 2 -2 -5 -12 -16 -21 -39 -32 -119
-197 -123 -254 -1 -23 -6 -50 -11 -61 -10 -24 9 -131 30 -163 10 -15 22 -22
31 -19 8 3 13 2 10 -3 -9 -14 43 -31 97 -31 64 0 181 31 250 67 29 15 54 28
57 28 21 5 60 30 60 38 0 6 3 7 6 4 4 -4 23 6 43 21 20 15 47 35 61 44 50 31
179 165 245 253 68 92 154 251 159 296 1 14 5 29 8 34 12 21 18 71 9 83 -13
22 37 68 354 328 160 130 299 244 309 253 10 9 -2 -13 -29 -49 -26 -36 -67
-105 -91 -153 -25 -48 -60 -109 -78 -135 -46 -65 -78 -130 -70 -144 4 -6 3 -8
-3 -5 -15 9 -60 -133 -79 -247 -16 -97 -14 -172 10 -334 21 -133 111 -229 190
-202 17 6 45 23 61 38 35 31 89 111 81 119 -3 3 1 11 8 19 20 20 53 137 66
235 9 64 9 107 0 170 -16 117 -40 210 -53 202 -6 -3 -7 -1 -3 5 11 18 -35 116
-46 100 -6 -9 -7 -6 -3 8 4 15 -6 36 -36 72 -47 61 -47 62 20 176 41 72 197
253 208 242 5 -4 13 -85 43 -441 16 -193 58 -606 105 -1055 26 -239 136 -1063
190 -1410 60 -391 84 -532 180 -1045 19 -99 32 -181 30 -184 -3 -2 -721 -6
-1597 -10 l-1593 -6 1635 -5 c1632 -5 10177 13 13120 29 1538 8 1544 8 543 9
-557 1 -1013 4 -1013 6 0 3 -20 79 -45 170 -25 92 -45 173 -45 181 0 13 28 15
191 15 177 0 190 1 185 18 -3 9 -35 126 -71 260 -36 133 -68 249 -71 257 -5
11 26 14 189 17 108 2 199 6 203 10 4 4 -32 111 -80 237 -47 126 -86 235 -86
240 0 8 75 11 231 11 l230 0 -7 23 c-10 33 -263 691 -409 1067 -807 2067
-1158 3057 -1445 4075 -23 83 -52 186 -65 230 -24 83 -20 107 14 98 25 -6 159
21 248 52 115 39 223 86 218 95 -3 5 3 8 12 8 10 -1 38 11 63 27 25 16 50 29
55 30 6 0 10 5 10 12 0 6 4 15 9 20 5 5 6 3 2 -4 -13 -23 12 -14 29 10 8 12
16 20 18 17 5 -11 86 56 82 67 -2 7 1 15 7 19 7 4 8 3 4 -4 -4 -7 -3 -12 2
-12 16 0 174 169 167 180 -4 6 1 7 12 3 10 -3 15 -3 12 1 -3 3 9 23 27 43 19
20 32 38 30 40 -2 3 7 16 20 30 13 14 24 30 24 35 0 6 9 23 21 39 11 16 17 34
13 40 -4 8 -3 9 4 5 14 -8 36 30 26 46 -4 7 -3 8 4 4 11 -6 16 6 13 27 0 4 3
7 8 7 12 0 32 60 24 73 -3 5 -2 7 4 4 6 -4 16 12 23 36 8 23 15 47 17 52 2 6
17 62 34 125 28 104 31 134 36 308 4 145 3 192 -6 192 -7 0 -10 4 -6 9 7 12
-6 122 -14 117 -4 -3 -7 12 -8 32 -2 71 -112 362 -145 383 -5 3 -11 12 -12 20
-2 8 -7 22 -11 32 -6 15 -10 16 -17 5 -7 -9 -8 -8 -4 6 4 12 -8 38 -38 80 -63
89 -113 146 -120 139 -3 -4 -6 1 -6 9 0 23 -186 192 -201 182 -5 -3 -8 -1 -7
4 2 6 0 9 -4 8 -3 0 -18 10 -32 23 -27 25 -60 47 -88 57 -10 3 -18 9 -18 13 0
12 -71 42 -82 35 -6 -4 -8 -3 -5 3 8 12 -131 76 -150 69 -8 -3 -12 -2 -9 3 3
5 -20 16 -52 24 -121 34 -218 57 -245 57 -34 0 -41 26 68 -272 46 -125 86
-241 90 -258 13 -60 -36 -140 -87 -140 -37 0 -103 91 -188 260 -137 271 -187
343 -247 355 -19 3 -40 8 -47 11 -10 4 -14 -8 -14 -45 -2 -56 -20 -109 -45
-129 -14 -12 -27 -4 -104 63 -49 43 -93 79 -100 82 -17 7 -104 -28 -97 -38 3
-5 -3 -6 -12 -2 -12 4 -15 3 -10 -5 5 -8 2 -10 -8 -6 -9 4 -16 1 -16 -6 0 -7
-6 -10 -14 -7 -8 3 -16 3 -18 -1 -2 -4 -21 -16 -43 -27 -76 -37 -116 -66 -109
-77 4 -7 3 -8 -4 -4 -22 13 -218 -136 -206 -156 4 -6 3 -9 -2 -6 -12 7 -55
-38 -46 -48 4 -4 2 -4 -5 0 -10 6 -91 -77 -93 -96 0 -4 -16 -24 -35 -45 -24
-26 -33 -44 -29 -58 4 -15 3 -17 -4 -6 -11 15 -13 12 -89 -133 -18 -34 -31
-67 -28 -74 3 -7 1 -11 -4 -8 -7 5 -64 -132 -75 -179 -2 -5 -8 -28 -14 -50 -6
-22 -18 -85 -28 -140 -27 -162 -9 -510 32 -605 4 -8 8 -22 9 -30 4 -34 49
-149 57 -144 4 3 5 -1 2 -9 -14 -38 220 -418 247 -401 5 3 8 0 7 -8 -2 -7 3
-12 10 -10 8 1 11 -2 8 -7 -7 -11 192 -201 210 -201 7 0 14 -4 16 -9 4 -12
120 -84 135 -84 7 0 10 -4 8 -8 -7 -10 25 -20 37 -12 6 3 8 2 5 -3 -6 -10 131
-79 168 -86 11 -1 22 -6 25 -9 9 -11 210 -60 221 -54 5 4 16 2 23 -4 18 -15
204 -30 308 -25 l87 4 11 -42 c32 -124 178 -633 240 -833 152 -493 430 -1299
648 -1880 171 -456 221 -585 456 -1195 542 -1401 580 -1499 574 -1505 -2 -2
-946 -20 -2098 -40 -4484 -76 -6211 -105 -6351 -106 l-146 -1 -239 150 c-131
82 -369 230 -529 329 -320 198 -1308 812 -1926 1197 l-227 141 -66 215 c-704
2308 -1065 4682 -1066 7013 l0 367 163 1 c89 0 180 4 202 8 27 6 -30 9 -168
10 -182 1 -208 -1 -214 -15z m10729 -1747 c5 -7 13 -19 18 -29 5 -9 10 -103
11 -210 0 -106 3 -203 6 -216 l5 -23 247 1 246 1 27 -31 c20 -21 28 -41 28
-66 0 -39 -24 -89 -49 -101 -9 -4 -124 -10 -256 -13 l-240 -5 0 -232 c0 -221
-1 -233 -21 -253 -23 -23 -80 -36 -119 -26 -14 4 -35 18 -47 31 -19 22 -21 39
-25 202 -2 98 -5 198 -6 223 l-2 45 -240 0 c-132 1 -250 4 -261 8 -42 15 -61
112 -30 159 9 14 25 30 34 34 9 4 124 10 254 12 l237 4 0 226 c1 203 3 230 20
252 27 37 78 51 121 34 19 -8 38 -20 42 -27z m-10416 -2447 c57 -349 146 -816
224 -1175 34 -154 83 -388 110 -520 280 -1371 603 -2668 950 -3814 33 -106 61
-195 63 -197 2 -2 813 5 1803 16 5555 60 8517 91 8520 88 6 -7 145 -520 142
-523 -2 -2 -1707 -15 -3788 -29 -2082 -14 -4504 -31 -5384 -37 -1352 -10
-1600 -9 -1607 2 -5 8 -34 91 -64 184 -204 630 -485 2013 -759 3735 -116 728
-176 1231 -225 1880 -12 146 -23 297 -26 335 -16 214 -25 356 -24 400 l1 50
10 -60 c5 -33 29 -184 54 -335z m509 -2355 c60 -231 180 -650 271 -942 34
-110 35 -112 82 -141 26 -16 403 -250 837 -519 435 -269 1017 -630 1295 -803
278 -172 568 -351 645 -398 l139 -86 741 12 c407 7 2169 37 3915 67 1746 30
3241 55 3321 55 l145 0 86 -231 c54 -145 81 -232 74 -234 -6 -2 -956 -13
-2111 -25 -5552 -55 -7890 -79 -8222 -85 l-362 -5 -45 142 c-176 562 -474
1675 -660 2468 -79 338 -196 861 -195 874 1 16 4 4 44 -149z m-1931 117 c3 -5
-1 -9 -9 -9 -8 0 -12 4 -9 9 3 4 7 8 9 8 2 0 6 -4 9 -8z m386 -906 c0 -2 -8
-10 -17 -17 -16 -13 -17 -12 -4 4 13 16 21 21 21 13z m-420 -380 c-7 -7 -13
-7 -20 0 -6 6 -3 10 10 10 13 0 16 -4 10 -10z"/>
<path d="M11655 9119 c-1682 -25 -4560 -77 -4650 -83 -99 -7 1139 5 2025 19
1562 26 3552 64 3625 69 78 5 -518 3 -1000 -5z"/>
<path d="M6738 9023 c34 -2 88 -2 120 0 31 2 3 3 -63 3 -66 0 -92 -1 -57 -3z"/>
<path d="M12335 8163 c-82 -1 -485 -7 -895 -13 -1528 -22 -3892 -65 -4345 -80
-226 -7 -205 -8 160 -4 1215 13 4667 72 5410 93 l270 8 -225 -1 c-124 0 -292
-1 -375 -3z"/>
<path d="M12595 7203 c-77 -1 -473 -7 -880 -13 -1411 -20 -3295 -55 -3875 -70
-255 -7 -201 -8 280 -4 882 6 4905 76 5100 88 53 3 -423 3 -625 -1z"/>
<path d="M7313 7103 c37 -2 96 -2 130 0 34 2 4 3 -68 3 -71 0 -99 -1 -62 -3z"/>
<path d="M12720 6113 c-1882 -28 -4759 -79 -4880 -87 -25 -1 47 -3 160 -4 193
-2 617 4 2095 28 1202 20 3285 59 3390 63 73 4 -535 4 -765 0z"/>
<path d="M13240 5103 c-69 -1 -451 -7 -850 -13 -1311 -19 -3160 -53 -3810 -69
-305 -8 -305 -8 -95 -9 116 -1 498 3 850 8 1902 30 3793 64 4390 79 l300 8
-330 -1 c-181 0 -386 -1 -455 -3z"/>
<path d="M8100 4528 c-41 -5 -568 -63 -1170 -128 -602 -66 -1102 -122 -1110
-125 -39 -12 225 14 1240 120 602 64 1106 116 1120 118 25 2 25 0 52 -158 14
-88 88 -531 163 -985 75 -454 139 -827 141 -829 10 -11 -2 65 -192 1245 -62
392 -114 721 -114 733 0 24 -6 24 -130 9z"/>
<path d="M5738 4263 c12 -2 32 -2 45 0 12 2 2 4 -23 4 -25 0 -35 -2 -22 -4z"/>
<path d="M5663 4253 c9 -2 23 -2 30 0 6 3 -1 5 -18 5 -16 0 -22 -2 -12 -5z"/>
<path d="M18183 3180 c18 -81 29 -236 24 -344 -14 -304 -96 -521 -308 -821
-12 -17 -3 -11 22 15 195 207 321 578 306 900 -5 106 -29 256 -44 269 -3 3 -3
-5 0 -19z"/>
<path d="M17786 2702 c-64 -307 -230 -628 -444 -856 -77 -83 -81 -96 -8 -26
185 178 327 406 409 660 33 99 74 296 65 305 -2 2 -12 -35 -22 -83z"/>
<path d="M8542 2500 c0 -14 2 -19 5 -12 2 6 2 18 0 25 -3 6 -5 1 -5 -13z"/>
</g>
</svg>
