<?xml version="1.0" standalone="no"?>
<!DOCTYPE svg PUBLIC "-//W3C//DTD SVG 20010904//EN"
 "http://www.w3.org/TR/2001/REC-SVG-20010904/DTD/svg10.dtd">
<svg version="1.0" xmlns="http://www.w3.org/2000/svg"
 width="5001.000000pt" height="5001.000000pt" viewBox="0 0 5001.000000 5001.000000"
 preserveAspectRatio="xMidYMid meet">

<g transform="translate(0.000000,5001.000000) scale(0.100000,-0.100000)"
fill="#000000" stroke="none">
<path d="M20818 40496 c-1715 -243 -3120 -444 -3123 -447 -4 -5 1303 -2651
1317 -2665 3 -3 363 43 799 101 437 58 803 104 813 103 16 -3 33 -46 96 -253
190 -615 302 -980 306 -990 3 -6 -35 -22 -93 -38 -339 -94 -499 -295 -439
-551 27 -112 71 -192 156 -276 121 -122 262 -180 434 -180 138 0 646 64 1041
131 194 33 723 159 924 220 153 46 293 154 370 283 72 122 99 292 66 419 -44
168 -149 265 -333 308 -40 9 -204 12 -332 6 l-35 -2 -42 599 c-24 330 -41 601
-39 603 2 2 275 40 607 84 332 45 607 84 610 87 4 4 10 243 13 532 4 289 13
887 21 1330 19 1063 19 1040 -2 1039 -10 -1 -1421 -200 -3135 -443z m1742
-2653 c0 -5 21 -311 47 -681 l47 -674 30 5 c17 2 78 12 135 22 113 19 283 17
353 -4 132 -40 208 -190 179 -353 -28 -163 -144 -295 -312 -359 -62 -24 -492
-134 -714 -182 -270 -60 -945 -159 -1185 -174 -155 -9 -275 29 -377 121 -127
116 -174 307 -102 422 60 98 266 193 472 219 30 4 59 10 66 14 9 6 -45 193
-198 691 -116 376 -211 689 -211 695 0 6 325 54 863 127 921 124 907 122 907
111z"/>
</g>
</svg>
